<?xml version="1.0" standalone="no"?>
<!DOCTYPE svg PUBLIC "-//W3C//DTD SVG 20010904//EN"
 "http://www.w3.org/TR/2001/REC-SVG-20010904/DTD/svg10.dtd">
<svg version="1.0" xmlns="http://www.w3.org/2000/svg"
 width="500.000000pt" height="500.000000pt" viewBox="0 0 500.000000 500.000000"
 preserveAspectRatio="xMidYMid meet">
<metadata>
Created by potrace 1.14, written by Peter Selinger 2001-2017
</metadata>
<g transform="translate(0.000000,500.000000) scale(0.100000,-0.100000)"
fill="#000000" stroke="none">
<path d="M1941 4710 c-125 -57 -97 -233 42 -255 177 -28 351 -117 476 -243 92
-93 114 -124 166 -227 62 -125 92 -256 89 -388 -3 -142 -12 -187 -83 -378 -29
-81 -9 -144 57 -178 79 -40 158 -5 199 88 27 62 71 191 78 230 40 238 32 403
-31 596 -56 170 -181 366 -307 480 -154 140 -363 245 -557 281 -69 12 -89 11
-129 -6z"/>
<path d="M3095 4440 c-177 -39 -239 -258 -108 -382 55 -53 157 -75 223 -50
152 59 199 237 95 360 -46 54 -141 87 -210 72z"/>
<path d="M3725 4373 c-32 -9 -65 -34 -81 -64 -24 -48 -17 -93 30 -187 40 -80
69 -159 81 -223 3 -13 7 -36 10 -50 3 -14 6 -62 7 -105 4 -391 -227 -716 -597
-839 -114 -39 -134 -51 -155 -97 -43 -96 26 -195 133 -191 83 4 283 89 408
174 82 56 191 160 250 239 27 36 52 70 57 75 4 6 24 42 45 82 172 330 178 709
15 1038 -47 95 -79 132 -127 145 -38 10 -44 11 -76 3z"/>
<path d="M1487 4360 c-30 -9 -93 -53 -114 -80 -50 -63 -61 -156 -28 -228 81
-172 316 -178 401 -11 28 55 32 131 10 183 -19 45 -70 101 -109 120 -41 19
-122 27 -160 16z"/>
<path d="M1001 3859 c-215 -42 -490 -190 -571 -306 -80 -115 48 -265 168 -198
15 9 57 39 94 68 173 136 416 205 613 175 28 -4 67 -10 89 -14 52 -7 162 -48
233 -85 130 -68 260 -197 337 -332 60 -106 67 -114 107 -131 87 -36 173 16
186 112 4 30 -2 52 -30 108 -105 208 -293 395 -500 500 -217 110 -492 149
-726 103z"/>
<path d="M4155 3395 c-22 -8 -59 -34 -82 -58 -82 -87 -84 -211 -6 -298 48 -53
86 -72 155 -75 205 -10 312 228 169 375 -67 68 -148 87 -236 56z"/>
<path d="M461 2976 c-81 -29 -139 -106 -146 -194 -6 -69 13 -119 64 -171 70
-72 155 -89 241 -50 59 27 98 64 121 117 35 81 21 164 -41 235 -61 69 -155 94
-239 63z"/>
<path d="M1260 2809 c-276 -56 -510 -205 -682 -432 -101 -134 -187 -337 -214
-502 -13 -80 -10 -295 5 -338 18 -52 67 -87 123 -89 54 -1 79 12 113 56 25 33
26 39 22 136 -12 354 150 645 453 813 160 88 331 117 562 92 69 -7 80 -6 112
15 87 53 89 177 4 228 -74 44 -332 55 -498 21z"/>
<path d="M4634 2696 c-31 -14 -74 -60 -74 -79 0 -19 -73 -153 -115 -212 -209
-290 -614 -421 -951 -309 -97 32 -151 59 -250 124 -77 50 -110 59 -156 41 -81
-31 -113 -131 -65 -202 46 -69 286 -197 445 -239 107 -28 150 -34 277 -34 158
-1 221 9 365 55 116 38 161 61 277 138 178 119 316 283 404 482 52 118 37 194
-45 233 -41 19 -71 20 -112 2z"/>
<path d="M1782 2062 c-47 -25 -155 -134 -220 -221 -293 -395 -293 -945 1
-1342 103 -140 284 -291 364 -302 72 -11 148 61 145 139 -2 49 -25 83 -86 127
-280 202 -414 522 -359 853 30 178 108 326 247 468 113 116 127 152 88 225
-35 64 -115 88 -180 53z"/>
<path d="M2482 1810 c-18 -11 -41 -34 -53 -52 -17 -29 -19 -44 -14 -117 3 -46
10 -102 15 -125 5 -23 11 -52 14 -66 10 -52 39 -135 72 -208 160 -352 509
-605 894 -649 99 -12 305 -5 351 11 8 3 26 7 41 10 88 15 167 54 192 96 37 62
15 154 -44 185 -44 23 -69 24 -140 4 -138 -37 -297 -51 -395 -34 -217 39 -433
168 -556 333 -102 137 -157 287 -174 476 -6 72 -29 113 -75 137 -45 24 -87 24
-128 -1z"/>
<path d="M4062 1764 c-113 -47 -172 -160 -142 -270 46 -164 255 -218 376 -97
105 105 75 286 -59 354 -49 26 -131 32 -175 13z"/>
<path d="M964 1181 c-181 -81 -179 -331 2 -412 48 -22 136 -19 182 5 81 42
134 138 125 227 -13 140 -180 237 -309 180z"/>
<path d="M2668 701 c-81 -51 -117 -118 -113 -208 8 -158 181 -256 325 -183 74
38 123 121 119 205 -3 61 -27 112 -74 156 -44 42 -84 57 -156 58 -44 1 -64 -5
-101 -28z"/>
</g>
</svg>
